<?xml version="1.0" encoding="UTF-8"?>
<svg width="699px" height="912px" viewBox="0 0 699 912" version="1.1" xmlns="http://www.w3.org/2000/svg" xmlns:xlink="http://www.w3.org/1999/xlink">
    <title>hero-login</title>
    <defs>
        <path d="M700.20996,0 C642.214091,0.0154454438 584.986709,11.79989 536.851743,40.8420439 L536.851743,40.8420439 C475.257026,78.0046398 442.049479,138.274478 406.018198,191.986867 L406.018198,191.986867 C396.011037,206.904591 385.255773,221.948883 369.423291,232.843498 L369.423291,232.843498 C337.964717,254.491575 303.347086,247.607626 266.260408,246.905287 L266.260408,246.905287 C157.372596,244.84375 55.0898053,309.987912 19.8208967,395.01079 L19.8208967,395.01079 C-18.7135761,487.90827 -3.32801926,595.953011 86.0076859,656.085985 L86.0076859,656.085985 C93.369984,661.041399 99.6182802,663.413132 107.531464,667.744721 L107.531464,667.744721 L1366.5945,668 C1397.73559,610.025527 1426.6288,549.509849 1430.53138,486.111021 L1430.53138,486.111021 C1436.91421,382.417605 1377.9032,296.751167 1265.2234,252.365681 L1265.2234,252.365681 C1213.62056,232.038619 1155.43104,222.417394 1108.92528,193.704314 L1108.92528,193.704314 C1091.56602,182.986892 1077.96918,169.122032 1064.33005,155.314235 L1064.33005,155.314235 C989.378013,79.4329143 882.717186,20.7887093 764.04644,4.47917871 L764.04644,4.47917871 C743.000165,1.58701935 721.648124,0 700.396986,0 L700.396986,0" id="path-1"></path>
        <polygon id="path-3" points="2.82804478e-15 0 89.2606549 0 89.2606549 45.0330704 2.82804478e-15 45.0330704"></polygon>
        <polygon id="path-5" points="0 551 293 551 293 0 0 0"></polygon>
        <path d="M13.2978928,0.239652162 C3.29179665,2.25562971 -2.26800482,16.4580783 0.881017968,31.9611721 L0.881017968,31.9611721 L3.65204886,45.6032242 C4.75236464,51.020541 5.35869822,56.5271044 5.46286205,62.053601 L5.46286205,62.053601 L5.83994423,82 L28.9438464,77.2667565 L24.7017856,56.3816822 C34.7087915,54.3661577 40.2676832,40.1632561 37.1191153,24.6597092 L37.1191153,24.6597092 C34.2216322,10.3961017 24.9610581,0.000906057325 15.7054874,0 L15.7054874,0 C14.901288,0 14.0984532,0.0783739586 13.2978928,0.239652162" id="path-7"></path>
        <path d="M65.7174291,0 C65.2660139,0 64.8159598,0.00545373791 64.3663594,0.0163612137 L64.3663594,0.0163612137 C45.3148244,0.467203548 28.2957918,12.0982086 20.3962532,29.4710907 L20.3962532,29.4710907 L-1.28944632e-14,74.3312664 L31.8789848,93.5193343 L27.192887,132 L137.693877,132 L132.735569,76.0355595 L149.030069,92.5231181 L184,54.1601622 L142.443491,15.3554536 C131.874931,5.48736929 117.964539,0 103.516985,0 L103.516985,0 L65.7174291,0 Z" id="path-9"></path>
        <polygon id="path-11" points="0 0 293 0 293 235 0 235"></polygon>
        <polyline id="path-13" points="41.7675983 0 0 41.7423294 151.606607 193.257216 193.37466 235 235.142713 193.257216 293 135.435386 251.231947 93.6926025 193.37466 151.514887 41.768508 0"></polyline>
        <polyline id="path-15" points="41.7675983 0 0 41.7423294 151.606607 193.257216 193.37466 235 235.142713 193.257216 293 135.435386 251.231947 93.6926025 193.37466 151.514887 41.768508 0"></polyline>
        <path d="M2.71406641,19.5935706 C2.71406641,19.5935706 -5.52130661,46.8661807 6.69888051,56.4420745 L6.69888051,56.4420745 C19.1544804,66.2030273 129.560813,26.9056672 129.560813,26.9056672 L129.560813,26.9056672 L131,11.9285919 L38.2007329,17.4731034 L8.54551272,5.15656067e-14 L2.71406641,19.5935706 Z" id="path-17"></path>
    </defs>
    <g id="Page-1" stroke="none" stroke-width="1" fill="none" fill-rule="evenodd">
        <g id="1.-Login" transform="translate(-21.000000, -57.000000)">
            <rect fill="#FFFFFF" x="0" y="0" width="1440" height="1024"></rect>
            <rect id="Rectangle" x="0" y="0" width="720" height="1024"></rect>
            <g id="Group-9" transform="translate(43.000000, 266.000000)">
                <path d="M107.531339,667.744721 L1366.59443,668 C1397.73552,610.025539 1426.62873,549.509873 1430.53131,486.11063 C1436.91465,382.417665 1377.90313,296.750816 1265.22282,252.365339 C1213.62048,232.038281 1155.43096,222.417059 1108.9252,193.704414 C1091.56593,182.986565 1077.96859,169.121708 1064.32997,155.313913 C989.377927,79.4326085 882.717094,20.7879867 764.045834,4.47931763 C685.499024,-6.31575823 602.676607,1.12722798 536.851636,40.8421752 C475.256917,78.0043343 442.048859,138.274589 406.017576,191.986966 C396.010925,206.904259 385.25566,221.948547 369.423177,232.843589 C337.964602,254.491232 303.347479,247.607285 266.25978,246.904947 C157.372473,244.843838 55.0896781,309.987987 19.8212775,395.010418 C-18.7137065,487.907879 -3.32814899,595.952597 86.0070504,656.085559 C93.3698584,661.0414 99.6181549,663.412704 107.531339,667.744721" id="Fill-1" fill="#FFFFFF" opacity="0.272869731"></path>
                <g id="Group-8">
                    <mask id="mask-2" fill="white">
                        <use xlink:href="#path-1"></use>
                    </mask>
                    <g id="Clip-7"></g>
                    <path d="M-14.8140603,538.399469 C-14.8140603,538.399469 57.276021,574.093461 107.125816,630.821143 C107.125816,630.821143 47.3060619,527.422907 93.3210616,444.77734 C93.3210616,444.77734 139.336061,555.186521 140.86998,618.462214 C140.86998,618.462214 130.677322,511.926836 205.56311,465.438625 C205.56311,465.438625 201.212591,556.810867 185.873409,602.320438 C185.873409,602.320438 214.962308,523.685109 326.314582,510.703643 C326.314582,510.703643 278.840576,597.884593 231.718709,622.70113 C231.718709,622.70113 268.178061,591.989582 381.681897,584.241975 C381.681897,584.241975 339.03795,641.641535 256.382178,645.338144 C256.382178,645.338144 360.975019,633.313008 416.193019,673.989872 L85.65198,673.989872 C85.65198,673.989872 3.59193955,587.470073 -14.8140603,538.399469" id="Fill-6" fill="#FFCE2D" mask="url(#mask-2)"></path>
                </g>
            </g>
            <rect id="Rectangle" fill="#FFCE2D" x="363" y="102" width="419" height="657"></rect>
            <g id="Group-20" transform="translate(351.000000, 87.000000)">
                <polygon id="Fill-1" fill="#FFFFFF" points="0 657 471 657 471 0 0 0"></polygon>
                <path d="M53.7132251,183.454918 L190.285921,183.454918 L190.285921,56.5455039 L53.7132251,56.5455039 L53.7132251,183.454918 Z M38,199 L206,199 L206,41 L38,41 L38,199 Z" id="Fill-2" fill="#646464"></path>
                <polygon id="Fill-3" fill="#FE6D60" points="131.523312 117.19825 223.625828 25 249 50.400663 156.897908 142.599337 131.523312 168 106.148717 142.598913 71 107.413923 96.3745952 82.0128363"></polygon>
                <g id="Group-19" transform="translate(38.000000, 76.000000)" fill="#6B6B6B">
                    <path d="M389.587719,25.2685778 L210.592946,25.2685778 C210.365218,25.2685778 210.180665,25.083879 210.180665,24.8559708 L210.180665,0.412606997 C210.180665,0.18469882 210.365218,3.72187048e-14 210.592946,3.72187048e-14 L389.587719,3.72187048e-14 C389.815447,3.72187048e-14 390,0.18469882 390,0.412606997 L390,24.8559708 C390,25.083879 389.815447,25.2685778 389.587719,25.2685778" id="Fill-4"></path>
                    <path d="M389.587719,69.9897539 L210.592946,69.9897539 C210.365218,69.9897539 210.180665,69.8050551 210.180665,69.5771469 L210.180665,45.1337831 C210.180665,44.9062986 210.365218,44.7215997 210.592946,44.7215997 L389.587719,44.7215997 C389.815447,44.7215997 390,44.9062986 390,45.1337831 L390,69.5771469 C390,69.8050551 389.815447,69.9897539 389.587719,69.9897539" id="Fill-6"></path>
                    <path d="M311.117668,114.711142 L210.490172,114.711142 C210.319165,114.711142 210.18075,114.572618 210.18075,114.401898 L210.18075,89.7522311 C210.18075,89.5815118 210.319165,89.4429877 210.490172,89.4429877 L311.117668,89.4429877 C311.288252,89.4429877 311.426667,89.5815118 311.426667,89.7522311 L311.426667,114.401898 C311.426667,114.572618 311.288252,114.711142 311.117668,114.711142" id="Fill-8"></path>
                    <path d="M15.5824488,314.892891 L151.018493,314.892891 L151.018493,187.574403 L15.5824488,187.574403 L15.5824488,314.892891 Z M0,330.48808 L166.601788,330.48808 L166.601788,171.97879 L0,171.97879 L0,330.48808 Z" id="Fill-10"></path>
                    <path d="M389.587719,231.78054 L210.592946,231.78054 C210.365218,231.78054 210.180665,231.595841 210.180665,231.367933 L210.180665,206.924569 C210.180665,206.697085 210.365218,206.512386 210.592946,206.512386 L389.587719,206.512386 C389.815447,206.512386 390,206.697085 390,206.924569 L390,231.367933 C390,231.595841 389.815447,231.78054 389.587719,231.78054" id="Fill-12"></path>
                    <path d="M389.587719,276.502182 L210.592946,276.502182 C210.365218,276.502182 210.180665,276.31706 210.180665,276.089575 L210.180665,251.646211 C210.180665,251.418303 210.365218,251.233605 210.592946,251.233605 L389.587719,251.233605 C389.815447,251.233605 390,251.418303 390,251.646211 L390,276.089575 C390,276.31706 389.815447,276.502182 389.587719,276.502182" id="Fill-13"></path>
                    <path d="M311.117668,321.22357 L210.490172,321.22357 C210.319165,321.22357 210.18075,321.085046 210.18075,320.914327 L210.18075,296.264659 C210.18075,296.093517 210.319165,295.955416 210.490172,295.955416 L311.117668,295.955416 C311.288252,295.955416 311.426667,296.093517 311.426667,296.264659 L311.426667,320.914327 C311.426667,321.085046 311.288252,321.22357 311.117668,321.22357" id="Fill-14"></path>
                    <path d="M15.5824488,521.405235 L151.018493,521.405235 L151.018493,394.086323 L15.5824488,394.086323 L15.5824488,521.405235 Z M0,537 L166.601788,537 L166.601788,378.491134 L0,378.491134 L0,537 Z" id="Fill-15"></path>
                    <path d="M389.587719,438.292757 L210.592946,438.292757 C210.365218,438.292757 210.180665,438.108058 210.180665,437.88015 L210.180665,413.436786 C210.180665,413.208878 210.365218,413.024603 210.592946,413.024603 L389.587719,413.024603 C389.815447,413.024603 390,413.208878 390,413.436786 L390,437.88015 C390,438.108058 389.815447,438.292757 389.587719,438.292757" id="Fill-16"></path>
                    <path d="M389.587719,483.014145 L210.592946,483.014145 C210.365218,483.014145 210.180665,482.829446 210.180665,482.601538 L210.180665,458.158174 C210.180665,457.930266 210.365218,457.745991 210.592946,457.745991 L389.587719,457.745991 C389.815447,457.745991 390,457.930266 390,458.158174 L390,482.601538 C390,482.829446 389.815447,483.014145 389.587719,483.014145" id="Fill-17"></path>
                    <path d="M311.117668,527.735575 L210.490172,527.735575 C210.319165,527.735575 210.18075,527.597051 210.18075,527.426332 L210.18075,502.776664 C210.18075,502.605945 210.319165,502.467421 210.490172,502.467421 L311.117668,502.467421 C311.288252,502.467421 311.426667,502.605945 311.426667,502.776664 L311.426667,527.426332 C311.426667,527.597051 311.288252,527.735575 311.117668,527.735575" id="Fill-18"></path>
                </g>
            </g>
            <g id="Group-64" transform="translate(93.000000, 383.000000)">
                <g id="Group-29" transform="translate(0.000000, 0.000000)">
                    <path d="M62.3318962,486.385272 L58.3217556,495.311627 L87.6822989,525.372493 C92.6667727,530.476055 94.0222876,538.099856 91.1006527,544.602643 L4.7143261,505.966703 L21.6791862,468.203519 L62.3318962,486.385272 Z" id="Fill-1" fill="#4F5285"></path>
                    <path d="M38.8032055,501.360607 C37.024206,505.320463 32.3654196,507.090939 28.397127,505.316379 C24.4288345,503.541819 22.6543836,498.893016 24.4329283,494.933614 C26.211473,490.974212 30.8707142,489.203282 34.8385519,490.978296 C38.8068445,492.752856 40.5817502,497.401205 38.8032055,501.360607" id="Fill-3" fill="#373660"></path>
                    <path d="M61.8594674,498.933999 L56.303221,503.510639 C55.0805284,504.517736 54.9495256,506.339496 56.014833,507.510434 C56.9878015,508.579255 58.6189681,508.724033 59.7652424,507.844015 L65.9346546,503.106257 L61.8594674,498.933999 Z" id="Fill-5" fill="#373660"></path>
                    <path d="M69.01836,506.286487 L63.4621136,510.863127 C62.239421,511.870224 62.1084182,513.692438 63.1741804,514.863376 C64.1466941,515.932196 65.7783155,516.076975 66.9245899,515.196957 L73.0935472,510.459199 L69.01836,506.286487 Z" id="Fill-7" fill="#373660"></path>
                    <path d="M77.1225195,514.575906 L71.5662731,519.152546 C70.3435805,520.160097 70.2121228,521.981858 71.2778851,523.152795 C72.2508536,524.221616 73.8820202,524.366395 75.0282945,523.486376 L81.1977067,518.748618 L77.1225195,514.575906 Z" id="Fill-9" fill="#373660"></path>
                    <g id="Group-13" transform="translate(1.840225, 505.966930)">
                        <mask id="mask-4" fill="white">
                            <use xlink:href="#path-3"></use>
                        </mask>
                        <g id="Clip-12"></g>
                        <polygon id="Fill-11" fill="#373660" mask="url(#mask-4)" points="2.8738735 0 2.82804478e-15 6.3970395 86.3863266 45.0334335 89.2606549 38.6359401"></polygon>
                    </g>
                    <path d="M177.441492,213.753342 L81.1658203,213.753342 L66.169186,342.903193 C64.4670596,357.560333 60.2949849,371.825346 53.828997,385.095061 L12.7077701,469.48742 L75.0555413,492.345207 L114.053886,395.622151 C116.757638,388.916038 118.361058,381.820067 118.802282,374.605641 L126.598767,247.126872 L128.139869,502.562316 L190.398941,502.562316 L177.441492,213.753342 Z" id="Fill-14" fill="#373660"></path>
                    <path d="M180.25646,502.562134 L180.25646,512.344453 L219.372162,527.793111 C226.01282,530.41592 230.375031,536.819313 230.375031,543.945692 L135.706417,543.945692 L135.706417,502.562134 L180.25646,502.562134 Z" id="Fill-16" fill="#4F5285"></path>
                    <path d="M164.925223,525.830021 C164.925223,530.169297 161.399974,533.686647 157.050955,533.686647 C152.70239,533.686647 149.177142,530.169297 149.177142,525.830021 C149.177142,521.490745 152.70239,517.973394 157.050955,517.973394 C161.399974,517.973394 164.925223,521.490745 164.925223,525.830021" id="Fill-18" fill="#373660"></path>
                    <path d="M184.969512,514.205835 L181.775865,520.649622 C181.072634,522.067454 181.699901,523.784375 183.152758,524.417498 C184.478252,524.995705 186.026177,524.46243 186.711667,523.191191 L190.39885,516.350285 L184.969512,514.205835 Z" id="Fill-20" fill="#373660"></path>
                    <path d="M194.516704,517.993545 L191.322601,524.437332 C190.619826,525.855164 191.247093,527.572085 192.699495,528.205662 C194.024989,528.783415 195.573369,528.25014 196.258859,526.978901 L199.946041,520.137995 L194.516704,517.993545 Z" id="Fill-22" fill="#373660"></path>
                    <path d="M205.309877,522.250629 L202.115775,528.694415 C201.413,530.112248 202.040266,531.828715 203.493124,532.462292 C204.818162,533.040499 206.366542,532.506769 207.052032,531.235531 L210.739215,524.395078 L205.309877,522.250629 Z" id="Fill-24" fill="#373660"></path>
                    <mask id="mask-6" fill="white">
                        <use xlink:href="#path-5"></use>
                    </mask>
                    <g id="Clip-27"></g>
                    <polygon id="Fill-26" fill="#373660" mask="url(#mask-6)" points="135.706599 550.955976 230.375212 550.955976 230.375212 543.945783 135.706599 543.945783"></polygon>
                    <path d="M134.374237,16.4606106 C124.36708,18.4802506 118.80765,32.7085009 121.95672,48.2397595 L124.727793,61.9065953 C125.828125,67.3342076 126.434468,72.8503209 126.538633,78.3868577 L126.915721,98.3694935 L150.019972,93.6276511 L145.777847,72.7050884 C155.785004,70.6854484 161.344435,56.4567442 158.195364,40.9254857 C155.046294,25.3942272 144.381394,14.4405168 134.374237,16.4606106" id="Fill-28" fill="#FFD1C1" mask="url(#mask-6)"></path>
                </g>
                <g id="Group-32" transform="translate(121.000000, 16.000000)">
                    <mask id="mask-8" fill="white">
                        <use xlink:href="#path-7"></use>
                    </mask>
                    <g id="Clip-31"></g>
                    <path d="M37.8738255,28.3766281 C37.8738255,28.3766281 23.0648214,17.247073 10.6051894,19.7573048 L9.49304719,11.6086783 L37.7414601,15.0072993 C37.7414601,15.0072993 40.4642754,26.0607456 37.8738255,28.3766281" id="Fill-30" fill="#FFB2A0" mask="url(#mask-8)"></path>
                </g>
                <g id="Group-37" transform="translate(47.000000, 65.000000)">
                    <path d="M99.0481387,8.27939275 C99.0481387,8.27939275 91.6172735,8.64887509 85.172714,0 C85.172714,0 89.3429632,13.0591177 99.7681328,11.8320378 L99.0481387,8.27939275 Z" id="Fill-33" fill="#FFB2A0"></path>
                    <path d="M184,71.4481031 L142.443139,32.7869387 C131.874606,22.9553579 117.964702,17.4882871 103.517183,17.4882871 L65.7172671,17.4882871 C65.2663067,17.4882871 64.8158,17.4937207 64.3662007,17.504135 C45.3147126,17.9537624 28.2957221,29.5417427 20.3966566,46.85036 L-2.57888628e-14,91.5445914 L31.8793599,110.66168 L27.19282,149 L137.693537,149 L132.734788,93.2425801 L149.029701,109.669149 L184,71.4481031 Z" id="Fill-35" fill="#FFC967"></path>
                </g>
                <g id="Group-40" transform="translate(47.000000, 82.000000)">
                    <mask id="mask-10" fill="white">
                        <use xlink:href="#path-9"></use>
                    </mask>
                    <g id="Clip-39"></g>
                    <path d="M7.55932135,43.9687168 C7.55932135,43.9687168 31.1803575,84.6940501 33.3276419,82.1126142 C35.47538,79.5311782 43.6353331,45.9734199 43.6353331,45.9734199 L138.979208,141.053887 L131.148176,143.620325 L-0.000408315231,143.620325 L-8.76103844,71.3569341 L7.55932135,43.9687168 Z" id="Fill-38" fill="#FFA648" mask="url(#mask-10)"></path>
                </g>
                <g id="Group-46" transform="translate(0.000000, 0.000000)">
                    <path d="M148.962989,7.05559607 C136.18294,0.617613547 127.176499,14.5741523 127.176499,14.5741523 C117.54461,15.0514776 115.070113,20.6916449 114.23497,26.6263901 C113.399828,32.5611354 124.800254,62.3648758 124.800254,62.3648758 L126.282677,48.7283724 C125.409326,47.8955533 124.714738,46.62905 124.411339,45.1320668 C123.814094,42.1817415 124.961733,39.4596232 126.974991,39.0527602 C128.987794,38.6454425 131.104308,40.7074881 131.701553,43.6582679 C131.751589,43.9060225 131.784794,44.1515041 131.810722,44.3947128 C131.858938,44.3624365 131.90488,44.3319786 131.953096,44.2992477 C133.886297,42.997286 133.510574,30.7563909 133.510574,30.7563909 L172.585792,31.7733212 C172.585792,31.7733212 163.544781,14.401406 148.962989,7.05559607" id="Fill-41" fill="#373660"></path>
                    <g id="Group-45">
                        <mask id="mask-12" fill="white">
                            <use xlink:href="#path-11"></use>
                        </mask>
                        <g id="Clip-44"></g>
                        <polygon id="Fill-43" fill="#FE6D60" mask="url(#mask-12)" points="193.374842 151.514887 41.7682351 0 -0.000272922459 41.7423294 151.606789 193.257671 193.374842 235 235.142895 193.257671 293.000182 135.435386 251.231674 93.6926025"></polygon>
                    </g>
                </g>
                <g id="Group-53" transform="translate(0.000000, 0.000000)">
                    <g id="Group-49">
                        <mask id="mask-14" fill="white">
                            <use xlink:href="#path-13"></use>
                        </mask>
                        <g id="Clip-48"></g>
                        <path d="M212.361284,216.02509 C212.361284,216.02509 216.586124,196.085164 219.419514,193.725359 C222.252904,191.365553 239.950106,186.135431 239.950106,186.135431 C239.950106,186.135431 229.100528,208.946582 226.148872,210.125803 C223.197215,211.305933 212.361284,216.02509 212.361284,216.02509" id="Fill-47" fill="#E63E36" mask="url(#mask-14)"></path>
                    </g>
                    <g id="Group-52">
                        <mask id="mask-16" fill="white">
                            <use xlink:href="#path-15"></use>
                        </mask>
                        <g id="Clip-51"></g>
                        <path d="M121.075726,166.882581 C121.075726,166.882581 161.133011,166.860306 162.791015,166.163411 C164.539538,165.427875 175.01885,153.583387 176.066418,157.42972 C176.717793,159.821802 173.871666,163.957258 177.488799,163.430382 C181.105931,162.903051 196.296795,158.98671 196.296795,158.98671 C196.296795,158.98671 183.333433,184.703182 178.175654,186.5993 C173.017874,188.494964 147.843051,197.814173 147.352246,197.265931 C146.860985,196.717688 121.075726,166.882581 121.075726,166.882581" id="Fill-50" fill="#E63E36" mask="url(#mask-16)"></path>
                    </g>
                </g>
                <path d="M78.2007329,174.473425 L48.5455127,157 L42.7140664,176.593876 C42.7140664,176.593876 34.4786934,203.86628 46.6988805,213.442102 C59.1544804,223.202981 169.560813,183.905464 169.560813,183.905464 L171,168.928502 L78.2007329,174.473425 Z" id="Fill-54" fill="#FFD1C1"></path>
                <g id="Group-58" transform="translate(40.000000, 157.000000)">
                    <mask id="mask-18" fill="white">
                        <use xlink:href="#path-17"></use>
                    </mask>
                    <g id="Clip-57"></g>
                    <polygon id="Fill-56" fill="#FFB2A0" mask="url(#mask-18)" points="38.2006876 17.4731941 -1.66447963e-05 20.3416079 9.41558932 -7.08839303"></polygon>
                </g>
                <g id="Group-63" transform="translate(161.000000, 157.000000)" fill="#FFD1C1">
                    <path d="M2.70348098,13.2556571 C2.70348098,13.2556571 13.7314475,-2.31376012 14.7862095,0.294617479 C15.841426,2.90299508 13.2501924,3.85601269 13.6551011,6.87269737 C14.3285855,11.889364 39.5074504,-1.19091567 40.3299921,0.540776058 C41.1520793,2.27246778 37.3315776,22.5740013 33.215688,24.7564569 C22.7039687,30.3300291 0,29.1773746 0,29.1773746 L2.70348098,13.2556571 Z" id="Fill-59"></path>
                    <path d="M82,27.7489322 C82,27.7489322 63.2210549,33.4963962 61.4141898,35.5487716 C59.6073247,37.601147 57.220136,52.3774367 57.6073214,51.9926163 C57.9945068,51.6077959 70.0381533,46.339099 73.1356363,43.7736298 C76.2331192,41.2086122 82,27.7489322 82,27.7489322" id="Fill-61"></path>
                </g>
            </g>
        </g>
    </g>
</svg>