<?xml version="1.0" encoding="UTF-8"?>
<svg width="140px" height="140px" viewBox="0 0 140 140" version="1.1" xmlns="http://www.w3.org/2000/svg" xmlns:xlink="http://www.w3.org/1999/xlink">
    <title>icon-users-blue</title>
    <g id="Page-1" stroke="none" stroke-width="1" fill="none" fill-rule="evenodd">
        <g id="2.-Admin-Dashboard" transform="translate(-911.000000, -363.000000)">
            <rect fill="#FFFFFF" x="0" y="0" width="1440" height="1024"></rect>
            <text id="Users" font-family="Roboto-Light, Roboto" font-size="80" font-weight="300" letter-spacing="-0.492307754" fill="#00798B">
                <tspan x="881" y="571">Users</tspan>
            </text>
            <g id="Group" transform="translate(919.000000, 387.000000)">
                <circle id="Oval" fill="#FFFFFF" cx="36.819854" cy="63.2078102" r="35.7664234"></circle>
                <path d="M36.8620799,29.844695 C18.5034282,29.844695 3.56770577,44.7808004 3.56770577,63.1386861 C3.56770577,81.4965718 18.5034282,96.4322942 36.8620799,96.4322942 C55.2195826,96.4322942 70.155305,81.4965718 70.155305,63.1386861 C70.155305,44.7808004 55.2195826,29.844695 36.8620799,29.844695 M36.8620799,100 C16.5363067,100 0,83.4636933 0,63.1386861 C0,42.8132959 16.5363067,26.2773723 36.8620799,26.2773723 C57.1867041,26.2773723 73.7230107,42.8132959 73.7230107,63.1386861 C73.7230107,83.4636933 57.1867041,100 36.8620799,100" id="Fill-10" fill="#009FB7"></path>
                <path d="M36.8620799,29.844695 C18.5034282,29.844695 3.56770577,44.7808004 3.56770577,63.1386861 C3.56770577,81.4965718 18.5034282,96.4322942 36.8620799,96.4322942 C55.2195826,96.4322942 70.155305,81.4965718 70.155305,63.1386861 C70.155305,44.7808004 55.2195826,29.844695 36.8620799,29.844695 M36.8620799,100 C16.5363067,100 0,83.4636933 0,63.1386861 C0,42.8132959 16.5363067,26.2773723 36.8620799,26.2773723 C57.1867041,26.2773723 73.7230107,42.8132959 73.7230107,63.1386861 C73.7230107,83.4636933 57.1867041,100 36.8620799,100" id="Fill-10" fill="#009FB7"></path>
                <path d="M27.0389201,61.0163321 C26.0538273,61.0163321 25.2552587,60.2177635 25.2552587,59.2326707 L25.2552587,48.6141978 C25.2552587,47.6291051 26.0538273,46.8305365 27.0389201,46.8305365 C28.0240128,46.8305365 28.8225814,47.6291051 28.8225814,48.6141978 L28.8225814,59.2326707 C28.8225814,60.2177635 28.0240128,61.0163321 27.0389201,61.0163321" id="Fill-4" fill="#009FB7"></path>
                <path d="M46.6840907,61.0163321 C45.6989979,61.0163321 44.9004293,60.2177635 44.9004293,59.2326707 L44.9004293,48.6141978 C44.9004293,47.6291051 45.6989979,46.8305365 46.6840907,46.8305365 C47.6691835,46.8305365 48.4677521,47.6291051 48.4677521,48.6141978 L48.4677521,59.2326707 C48.4677521,60.2177635 47.6691835,61.0163321 46.6840907,61.0163321" id="Fill-6" fill="#009FB7"></path>
                <path d="M36.8675186,79.4496701 C30.5850626,79.4496701 24.3022235,77.3511773 18.0611322,73.1553408 C17.2437963,72.6061095 17.0266316,71.4976886 17.576246,70.6803527 C18.1270094,69.8614847 19.2365793,69.6447031 20.0527662,70.1950834 C31.3675449,77.802359 42.3648112,77.80504 53.6715468,70.1950834 C54.4877337,69.6447031 55.5961546,69.8622508 56.146918,70.6792037 C56.6976813,71.4961566 56.4805166,72.6053435 55.6631807,73.1553408 C49.4286005,77.3511773 43.1488256,79.4496701 36.8675186,79.4496701" id="Fill-8" fill="#009FB7"></path>
                <g id="Group-2" transform="translate(50.364964, 0.000000)">
                    <circle id="Oval" fill="#FFFFFF" cx="36.819854" cy="36.930438" r="35.7664234"></circle>
                    <path d="M36.8620799,3.56732276 C18.5034282,3.56732276 3.56770577,18.5034282 3.56770577,36.8613139 C3.56770577,55.2191996 18.5034282,70.154922 36.8620799,70.154922 C55.2195826,70.154922 70.155305,55.2191996 70.155305,36.8613139 C70.155305,18.5034282 55.2195826,3.56732276 36.8620799,3.56732276 M36.8620799,73.7226277 C16.5363067,73.7226277 -1.0658141e-13,57.1863211 -1.0658141e-13,36.8613139 C-1.0658141e-13,16.5359237 16.5363067,0 36.8620799,0 C57.1867041,0 73.7230107,16.5359237 73.7230107,36.8613139 C73.7230107,57.1863211 57.1867041,73.7226277 36.8620799,73.7226277" id="Fill-10" fill="#009FB7"></path>
                    <path d="M36.8620799,3.56732276 C18.5034282,3.56732276 3.56770577,18.5034282 3.56770577,36.8613139 C3.56770577,55.2191996 18.5034282,70.154922 36.8620799,70.154922 C55.2195826,70.154922 70.155305,55.2191996 70.155305,36.8613139 C70.155305,18.5034282 55.2195826,3.56732276 36.8620799,3.56732276 M36.8620799,73.7226277 C16.5363067,73.7226277 -1.0658141e-13,57.1863211 -1.0658141e-13,36.8613139 C-1.0658141e-13,16.5359237 16.5363067,0 36.8620799,0 C57.1867041,0 73.7230107,16.5359237 73.7230107,36.8613139 C73.7230107,57.1863211 57.1867041,73.7226277 36.8620799,73.7226277" id="Fill-10" fill="#009FB7"></path>
                    <path d="M27.0389201,34.7389598 C26.0538273,34.7389598 25.2552587,33.9403912 25.2552587,32.9552984 L25.2552587,22.3368256 C25.2552587,21.3517328 26.0538273,20.5531642 27.0389201,20.5531642 C28.0240128,20.5531642 28.8225814,21.3517328 28.8225814,22.3368256 L28.8225814,32.9552984 C28.8225814,33.9403912 28.0240128,34.7389598 27.0389201,34.7389598" id="Fill-4" fill="#009FB7"></path>
                    <path d="M46.6840907,34.7389598 C45.6989979,34.7389598 44.9004293,33.9403912 44.9004293,32.9552984 L44.9004293,22.3368256 C44.9004293,21.3517328 45.6989979,20.5531642 46.6840907,20.5531642 C47.6691835,20.5531642 48.4677521,21.3517328 48.4677521,22.3368256 L48.4677521,32.9552984 C48.4677521,33.9403912 47.6691835,34.7389598 46.6840907,34.7389598" id="Fill-6" fill="#009FB7"></path>
                    <path d="M36.8675186,53.1722978 C30.5850626,53.1722978 24.3022235,51.0738051 18.0611322,46.8779686 C17.2437963,46.3287372 17.0266316,45.2203163 17.576246,44.4029804 C18.1270094,43.5841125 19.2365793,43.3673308 20.0527662,43.9177112 C31.3675449,51.5249867 42.3648112,51.5276678 53.6715468,43.9177112 C54.4877337,43.3673308 55.5961546,43.5848785 56.146918,44.4018314 C56.6976813,45.2187843 56.4805166,46.3279712 55.6631807,46.8779686 C49.4286005,51.0738051 43.1488256,53.1722978 36.8675186,53.1722978" id="Fill-8" fill="#009FB7"></path>
                </g>
            </g>
        </g>
    </g>
</svg>