<svg xmlns="http://www.w3.org/2000/svg" xmlns:xlink="http://www.w3.org/1999/xlink" width="1431" height="847" viewBox="0 0 1431 847">
  <defs>
    <path id="path-2" fill-rule="evenodd" d="M1191.19592285 602.38226318c70.01635742 33.53582764 112.41833496 120.72479248 112.41833496 120.72479248C1293.43139648 663.15124512 1343.40222168 565 1343.40222168 565c11.31970215 37.0164795 12.66625977 120.92834473 12.4510498 168.0904541 8.5522461-57.65466308 52.16601563-116.37658691 68.74169922-136.96148681 5.38806153 21.7947998 7.41442871 44.84106445 5.93579102 68.85681152C1426.625 728.42828369 1397.70739746 788.9855957 1366.54003906 847l-238.069458-.0480957C1043.11022948 834.78240967 998 777.87097168 998 777.87097168c135.69384766-9.34576416 210.06738281 13.4991455 210.06738281 13.4991455-106.97607422-35.32995605-113.99121094-113.58795165-113.99121094-113.58795165 73.28881836 18.39874267 130.98010254 61.94061279 159.58300782 87.03613281-45.06079102-54.49768066-62.46325684-162.43603516-62.46325684-162.43603516z"/>
    <mask id="mask-3" maskContentUnits="userSpaceOnUse" maskUnits="userSpaceOnUse">
      <rect width="1431" height="847" x="0" y="0" fill="black"/>
      <use fill="white" xlink:href="#path-2"/>
    </mask>
    <linearGradient id="linearGradient-5" x1="998" x2="1449.614" y1="708.682" y2="708.682" gradientUnits="userSpaceOnUse">
      <stop offset="0" stop-color="rgb(255,255,255)"/>
      <stop offset="1" stop-color="rgb(232,232,232)"/>
    </linearGradient>
    <path id="path-6" fill-rule="evenodd" d="M700.2099604 179c-57.9958696.01544544-115.22325124 11.79989004-163.35821774 40.84204388-61.59471702 37.16259592-94.8022637 97.43243389-130.83354497 151.14482287-10.00716042 14.9177245-20.76242449 29.96201582-36.59490704 40.85663124-31.4585741 21.64807664-66.07620445 14.76412813-103.16288263 14.06178948-108.8878121-2.06153771-211.17060276 63.0826249-246.43951136 148.10550276-38.53447279 92.89747997-23.14891592 200.94222089 66.18678926 261.07519506 7.36229803 4.95541323 13.6105943 7.32714693 21.52377793 11.65873585L1366.59450332 847c31.1410887-57.9744734 60.03429918-118.49015135 63.9368726-181.8889788 6.38283263-103.69341617-52.6281749-189.35985419-165.30797563-233.7453403-51.60284482-20.32706215-109.79236523-29.94828654-156.29811689-58.6613666-17.3592663-10.71742186-30.95610121-24.58228193-44.59523354-38.39007967-74.95203645-75.88132032-181.61286424-134.52552532-300.2836095-150.83505592C743.00016453 180.58701935 721.6481243 179.00386136 700.39698631 179"/>
    <mask id="mask-7" maskContentUnits="userSpaceOnUse" maskUnits="userSpaceOnUse">
      <rect width="1431" height="847" x="0" y="0" fill="black"/>
      <use fill="white" xlink:href="#path-6"/>
    </mask>
    <path id="path-29" fill-rule="evenodd" d="M51.84022517 801.96692962h89.26065492V847H51.84022517v-45.03307038z"/>
    <mask id="mask-30" maskContentUnits="userSpaceOnUse" maskUnits="userSpaceOnUse">
      <rect width="1431" height="847" x="0" y="0" fill="black"/>
      <use fill="white" xlink:href="#path-29"/>
    </mask>
    <path id="path-38" fill-rule="evenodd" d="M50 847h293V296H50v551z"/>
    <mask id="mask-39" maskContentUnits="userSpaceOnUse" maskUnits="userSpaceOnUse">
      <rect width="1431" height="847" x="0" y="0" fill="black"/>
      <use fill="white" xlink:href="#path-38"/>
    </mask>
    <path id="path-42" fill-rule="evenodd" d="M184.29789276 312.23965216c-10.00609611 2.01597755-15.56589758 16.21842611-12.4168748 31.72151997l2.7710309 13.6420521c1.10031578 5.41731675 1.70664936 10.92388014 1.8108132 16.4503768L176.83994422 394l23.10390216-4.73324346-4.24206075-20.88507437c10.00700584-2.01552452 15.56589758-16.2184261 12.41732966-31.721973C205.22163224 322.39610175 195.96105806 312.00090607 186.7054874 312c-.80419939 0-1.60703417.07837396-2.40759464.23965216"/>
    <mask id="mask-43" maskContentUnits="userSpaceOnUse" maskUnits="userSpaceOnUse">
      <rect width="1431" height="847" x="0" y="0" fill="black"/>
      <use fill="white" xlink:href="#path-42"/>
    </mask>
    <path id="path-47" fill-rule="evenodd" d="M162.7174291 378c-.45141518 0-.9014693.00545374-1.35106974.01636121-19.051535.45084234-36.07056752 12.08184739-43.9701062 29.4547295L97 452.33126638l31.87898483 19.18806788L124.19288703 510H234.693877l-4.95830796-55.96444053 16.29449983 16.48755866L281 432.16016223l-41.5565095-38.80470866C228.87493127 383.48736929 214.96453871 378 200.51698478 378h-37.79955569z"/>
    <mask id="mask-48" maskContentUnits="userSpaceOnUse" maskUnits="userSpaceOnUse">
      <rect width="1431" height="847" x="0" y="0" fill="black"/>
      <use fill="white" xlink:href="#path-47"/>
    </mask>
    <path id="path-51" fill-rule="evenodd" d="M50 296h293v235H50V296z"/>
    <mask id="mask-52" maskContentUnits="userSpaceOnUse" maskUnits="userSpaceOnUse">
      <rect width="1431" height="847" x="0" y="0" fill="black"/>
      <use fill="white" xlink:href="#path-51"/>
    </mask>
    <path id="path-54" fill-rule="evenodd" d="M91.7675983 296L50 337.74232943l151.60660665 151.51488655L243.37465982 531l41.76805317-41.74278402L343 431.43538649l-41.76805317-41.74278402-57.85728701 57.82228408L91.76850804 296"/>
    <mask id="mask-55" maskContentUnits="userSpaceOnUse" maskUnits="userSpaceOnUse">
      <rect width="1431" height="847" x="0" y="0" fill="black"/>
      <use fill="white" xlink:href="#path-54"/>
    </mask>
    <path id="path-57" fill-rule="evenodd" d="M91.7675983 296L50 337.74232943l151.60660665 151.51488655L243.37465982 531l41.76805317-41.74278402L343 431.43538649l-41.76805317-41.74278402-57.85728701 57.82228408L91.76850804 296"/>
    <mask id="mask-58" maskContentUnits="userSpaceOnUse" maskUnits="userSpaceOnUse">
      <rect width="1431" height="847" x="0" y="0" fill="black"/>
      <use fill="white" xlink:href="#path-57"/>
    </mask>
    <path id="path-61" fill-rule="evenodd" d="M92.7140664 472.59357057s-8.23537301 27.2726101 3.98481411 36.84850393c12.45559991 9.7609528 122.86193248-29.53640728 122.86193248-29.53640728L221 464.92859189l-92.79926712 5.54451147L98.54551272 453l-5.83144631 19.59357057z"/>
    <mask id="mask-62" maskContentUnits="userSpaceOnUse" maskUnits="userSpaceOnUse">
      <rect width="1431" height="847" x="0" y="0" fill="black"/>
      <use fill="white" xlink:href="#path-61"/>
    </mask>
  </defs>
  <g>
    <g>
      <g opacity=".273">
        <path fill="rgb(255,255,255)" fill-rule="evenodd" d="M107.53133892 846.74472119L1366.59443282 847c31.14109005-57.97446126 60.03430177-118.49012654 63.93687537-181.88936977 6.38334251-103.6929654-52.62817718-189.35981453-165.30849239-233.74529135-51.60233745-20.3270579-109.79186037-29.94828027-156.29761404-58.66092529-17.35926706-10.71784865-30.95661216-24.58270582-44.59523546-38.39050067-74.9520397-75.88130442-181.6128721-134.52592619-300.2841321-150.8345953-78.54681042-10.79507585-161.36922706-3.35208964-227.19419792 36.36285756-61.59471968 37.1621591-94.80277741 97.4324135-130.83406023 151.14479123-10.00665124 14.91729233-20.76191578 29.9615805-36.59439901 40.85662268-31.45857547 21.64764307-66.0756977 14.763696-103.1633967 14.0613575-108.8873072-2.06110824-211.17010229 63.08304074-246.4385028 148.10547175-38.53498406 92.89746052-23.14942653 200.94217882 66.1857729 261.0751404 7.36280796 4.95584123 13.6111045 7.3271454 21.52428848 11.65916245"/>
      </g>
      <g>
        <use fill="none" xlink:href="#path-2"/>
        <g mask="url(#mask-3)">
          <path fill="url(#linearGradient-5)" fill-rule="evenodd" d="M1191.19592285 602.38226318c70.01635742 33.53582764 112.41833496 120.72479248 112.41833496 120.72479248C1293.43139648 663.15124512 1343.40222168 565 1343.40222168 565c11.31970215 37.0164795 12.66625977 120.92834473 12.4510498 168.0904541 8.5522461-57.65466308 52.16601563-116.37658691 68.74169922-136.96148681 5.38806153 21.7947998 7.41442871 44.84106445 5.93579102 68.85681152C1426.625 728.42828369 1397.70739746 788.9855957 1366.54003906 847l-238.069458-.0480957C1043.11022948 834.78240967 998 777.87097168 998 777.87097168c135.69384766-9.34576416 210.06738281 13.4991455 210.06738281 13.4991455-106.97607422-35.32995605-113.99121094-113.58795165-113.99121094-113.58795165 73.28881836 18.39874267 130.98010254 61.94061279 159.58300782 87.03613281-45.06079102-54.49768066-62.46325684-162.43603516-62.46325684-162.43603516z"/>
        </g>
      </g>
      <g>
        <use fill="none" xlink:href="#path-6"/>
        <g mask="url(#mask-7)">
          <path fill="rgb(255,206,45)" fill-rule="evenodd" d="M-14.81406034 717.39946897s72.09008132 35.69399164 121.9398767 92.42167449c0 0-59.81975446-103.39823657-13.80475472-186.0438032 0 0 46.01499974 110.40918094 47.548918 173.6848739 0 0-10.1926575-106.53537783 64.69312998-153.0235895 0 0-4.35051833 91.37224239-19.68970092 136.88181358 0 0 29.08889972-78.63532876 140.44117319-91.61679525 0 0-47.47400571 87.18094959-94.59587272 111.99748742 0 0 36.45935148-30.7115489 149.96318737-38.45915513 0 0-42.64394682 57.39955966-125.29971827 61.09616921 0 0 104.59284098-12.0251361 159.81084067 28.65172734H85.65197995s-82.0600404-86.51979879-100.4660403-135.59040286"/>
        </g>
      </g>
    </g>
    <rect width="419" height="657" x="320" y="15" fill="rgb(255,206,45)" rx="0" ry="0"/>
    <g>
      <path fill="rgb(255,255,255)" fill-rule="evenodd" d="M308 657h471V0H308v657z"/>
      <path fill="rgb(100,100,100)" fill-rule="evenodd" d="M514 199H346V41h168v158zm-15.71411133-15.54507446H361.7131958V56.5455017h136.57269287v126.90942383z"/>
      <path fill="rgb(254,109,96)" fill-rule="evenodd" d="M439.5233124 117.19824994L531.62582842 25 557 50.40066302l-92.10209244 92.19867396L439.5233124 168l-25.37459516-25.40108704L379 107.41392336l25.37459516-25.40108703 35.14871724 35.18541361z"/>
      <g>
        <path fill="rgb(107,107,107)" fill-rule="evenodd" d="M735.58771887 101.26857778H556.59294635c-.22772818 0-.41228113-.18469882-.41228113-.412607V76.412607c0-.22790818.18455295-.412607.41228113-.412607h178.99477252C735.81544705 76 736 76.18469882 736 76.412607v24.44336378c0 .22790818-.18455295.412607-.41228113.412607"/>
        <path fill="rgb(107,107,107)" fill-rule="evenodd" d="M735.58771887 145.98975389H556.59294635c-.22772818 0-.41228113-.18469882-.41228113-.412607v-24.44336378c0-.22748456.18455295-.41218338.41228113-.41218338h178.99477252c.22772818 0 .41228113.18469882.41228113.41218338v24.44336378c0 .22790818-.18455295.412607-.41228113.412607"/>
        <path fill="rgb(107,107,107)" fill-rule="evenodd" d="M657.1176676 190.71114181H556.49017236c-.17100778 0-.30942249-.13852411-.30942249-.30924344V165.7522311c0-.17071932.13841471-.30924344.3094225-.30924344h100.62749521c.1705845 0 .3089992.13852412.3089992.30924344v24.64966728c0 .17071933-.1384147.30924344-.3089992.30924344"/>
        <path fill="rgb(107,107,107)" fill-rule="evenodd" d="M512.60180664 406.48809814H346V247.97879028h166.60180664v158.50930786zm-15.58331299-15.59521484H361.5824585V263.57440186h135.43603515V390.8928833z"/>
        <path fill="rgb(107,107,107)" fill-rule="evenodd" d="M735.58771887 307.78054019H556.59294635c-.22772818 0-.41228113-.18469882-.41228113-.412607V282.9245694c0-.22748455.18455295-.41218337.41228113-.41218337h178.99477252c.22772818 0 .41228113.18469882.41228113.41218337v24.44336379c0 .22790818-.18455295.412607-.41228113.412607"/>
        <path fill="rgb(107,107,107)" fill-rule="evenodd" d="M735.58771887 352.50218228H556.59294635c-.22772818 0-.41228113-.18512244-.41228113-.412607V327.6462115c0-.22790818.18455295-.412607.41228113-.412607h178.99477252c.22772818 0 .41228113.18469882.41228113.412607v24.44336378c0 .22748456-.18455295.412607-.41228113.412607"/>
        <path fill="rgb(107,107,107)" fill-rule="evenodd" d="M657.1176676 397.2235702H556.49017236c-.17100778 0-.30942249-.13852411-.30942249-.30924344v-24.64966728c0-.17114294.13841471-.30924344.3094225-.30924344h100.62749521c.1705845 0 .3089992.1381005.3089992.30924344v24.64966728c0 .17071933-.1384147.30924344-.3089992.30924344"/>
        <path fill="rgb(107,107,107)" fill-rule="evenodd" d="M512.60180664 613H346V454.4911499h166.60180664V613zm-15.58331299-15.5947876H361.5824585V470.08630371h135.43603515v127.3189087z"/>
        <path fill="rgb(107,107,107)" fill-rule="evenodd" d="M735.58771887 514.29275676H556.59294635c-.22772818 0-.41228113-.18469882-.41228113-.412607v-24.44336378c0-.22790817.18455295-.41218337.41228113-.41218337h178.99477252c.22772818 0 .41228113.1842752.41228113.41218337v24.44336379c0 .22790817-.18455295.412607-.41228113.412607"/>
        <path fill="rgb(107,107,107)" fill-rule="evenodd" d="M735.58771887 559.01414469H556.59294635c-.22772818 0-.41228113-.18469882-.41228113-.412607V534.1581739c0-.22790817.18455295-.41218337.41228113-.41218337h178.99477252c.22772818 0 .41228113.1842752.41228113.41218337v24.44336379c0 .22790818-.18455295.412607-.41228113.412607"/>
        <path fill="rgb(107,107,107)" fill-rule="evenodd" d="M657.1176676 603.73557497H556.49017236c-.17100778 0-.30942249-.13852411-.30942249-.30924344v-24.64966728c0-.17071932.13841471-.30924344.3094225-.30924344h100.62749521c.1705845 0 .3089992.13852412.3089992.30924344v24.64966728c0 .17071933-.1384147.30924344-.3089992.30924344"/>
      </g>
    </g>
    <g>
      <g>
        <path fill="rgb(79,82,133)" fill-rule="evenodd" d="M112.33189622 782.38527173l-4.01014067 8.92635495 29.3605433 30.06086637c4.98447385 5.1035622 6.33998873 12.7273628 3.4183538 19.23014975L54.7143261 801.9667027l16.96486007-37.76318332 40.65271005 18.18175236z"/>
        <path fill="rgb(55,54,96)" fill-rule="evenodd" d="M88.80320552 797.36060732c-1.77899956 3.95985595-6.43778594 5.73033138-10.4060785 3.95577129-3.96829256-1.77456009-5.74274342-6.4233629-3.96419872-10.382765 1.77854469-3.9594021 6.43778594-5.73033138 10.40562363-3.95531744 3.96829256 1.77456009 5.74319828 6.42290905 3.96465359 10.38231115"/>
        <path fill="rgb(55,54,96)" fill-rule="evenodd" d="M111.85946744 794.93399852l-5.5562464 4.57664039c-1.22269261 1.00709689-1.3536954 2.82885755-.28838806 3.9997949.97296857 1.06882072 2.60413513 1.2135994 3.75040946.33358099l6.1694122-4.73775774-4.0751872-4.17225854z"/>
        <path fill="rgb(55,54,96)" fill-rule="evenodd" d="M119.01836001 802.28648659l-5.5562464 4.57664039c-1.22269262 1.00709689-1.3536954 2.8293114-.2879332 4.00024875.9725137 1.06882072 2.60413514 1.21359941 3.75040947.333581l6.16895732-4.73775775-4.07518719-4.1727124z"/>
        <path fill="rgb(55,54,96)" fill-rule="evenodd" d="M127.12251952 810.57590608l-5.5562464 4.57664039c-1.22269262 1.00755074-1.35415027 2.8293114-.28838807 4.00024875.97296857 1.06882072 2.60413514 1.21359941 3.75040946.333581l6.1694122-4.73775775-4.0751872-4.1727124z"/>
        <g>
          <use fill="none" xlink:href="#path-29"/>
          <g mask="url(#mask-30)">
            <path fill="rgb(55,54,96)" fill-rule="evenodd" d="M54.71409867 801.96692962l-2.8738735 6.3970395 86.38632655 38.63639396 2.87432837-6.39749335-86.38678142-38.63594011z"/>
          </g>
        </g>
        <path fill="rgb(55,54,96)" fill-rule="evenodd" d="M227.44149213 509.75334207h-96.27567186L116.169186 638.90319302c-1.7021264 14.65714018-5.87420107 28.9221525-12.340189 42.19186807L62.70777006 765.4874204l62.34777121 22.85778628 38.99834508-96.72305575c2.70375183-6.7061125 4.30717128-13.8020836 4.74839592-21.01650999l7.79648492-127.47876905 1.54110215 255.43544392h62.25907142l-12.95744863-288.80897374z"/>
        <path fill="rgb(79,82,133)" fill-rule="evenodd" d="M230.25645986 798.56213427v9.78231923l39.11570174 15.4486575c6.6406583 2.6228089 11.00286894 9.02620232 11.00286894 16.15258149H185.7064171v-41.38355822h44.55004277z"/>
        <path fill="rgb(55,54,96)" fill-rule="evenodd" d="M214.92522266 821.83002093c0 4.33927596-3.52524843 7.85662652-7.87426782 7.85662652-4.34856452 0-7.87381295-3.51735056-7.87381295-7.85662652s3.52524843-7.85662652 7.87381295-7.85662652c4.34901939 0 7.87426782 3.51735056 7.87426782 7.85662652"/>
        <path fill="rgb(55,54,96)" fill-rule="evenodd" d="M234.96951233 810.20583541l-3.19364765 6.44378623c-.7032302 1.41783266-.07596342 3.13475359 1.3768938 3.76787669 1.32549342.57820705 2.87341863.04493132 3.55890888-1.22630725l3.68718242-6.84090645-5.42933745-2.14444922z"/>
        <path fill="rgb(55,54,96)" fill-rule="evenodd" d="M244.51670385 813.99354542l-3.19410252 6.44378623c-.70277533 1.41783266-.07550854 3.13475359 1.37689381 3.76833054 1.32549341.5777532 2.8738735.04447747 3.55936374-1.2267611l3.68718242-6.84090646-5.42933745-2.1444492z"/>
        <path fill="rgb(55,54,96)" fill-rule="evenodd" d="M255.30987737 818.25062884l-3.19410251 6.44378623c-.70277534 1.41783267-.07550855 3.13429974 1.37734867 3.7678767 1.32503854.57820704 2.87341863.04447746 3.55890887-1.22676111l3.68718243-6.8404526-5.42933746-2.14444922z"/>
        <use fill="none" xlink:href="#path-38"/>
        <g mask="url(#mask-39)">
          <path fill="rgb(55,54,96)" fill-rule="evenodd" d="M185.70659904 846.95597639h94.66861345v-7.01019313h-94.66861345v7.01019313z"/>
          <path fill="rgb(255,209,193)" fill-rule="evenodd" d="M184.37423708 312.46061062c-10.00715684 2.01964-15.56658733 16.24789033-12.41751702 31.77914885l2.7710727 13.6668358c1.10033238 5.4276123 1.70667511 10.94372568 1.81084052 16.48026239l.37708786 19.98263585 23.1042508-4.74184241-4.24212477-20.92256269c10.00715684-2.01964 15.56658734-16.24834418 12.41751703-31.7796027-3.14907031-15.53125852-13.81397028-26.48496895-23.82112712-24.4648751"/>
        </g>
      </g>
      <g>
        <use fill="none" xlink:href="#path-42"/>
        <g mask="url(#mask-43)">
          <path fill="rgb(255,178,160)" fill-rule="evenodd" d="M208.87382548 340.37662814s-14.80900405-11.12955515-27.26863605-8.61932333l-1.11214224-8.14862655 28.2484129 3.39862103s2.72281531 11.05344633.1323654 13.36932885"/>
        </g>
      </g>
      <g>
        <path fill="rgb(255,178,160)" fill-rule="evenodd" d="M196.04813867 369.27939275S188.61727347 369.6488751 182.17271396 361c0 0 4.17024928 13.05911766 14.5954188 11.83203785l-.7199941-3.5526451z"/>
        <path fill="rgb(255,201,103)" fill-rule="evenodd" d="M281 432.44810308l-41.55686071-38.66116442c-10.56853318-9.8315808-24.47843776-15.29865151-38.92595607-15.29865151h-37.79991616c-.45096038 0-.90146707.00543356-1.3510664.01584789-19.05148803.4496274-36.07047859 12.03760768-43.9695441 29.34622498L97 452.54459139l31.87935991 19.11708843L124.19281998 510H234.6935375l-4.95874941-55.75741994 16.29491333 16.42656879L281 432.44810308z"/>
      </g>
      <g>
        <use fill="none" xlink:href="#path-47"/>
        <g mask="url(#mask-48)">
          <path fill="rgb(255,166,72)" fill-rule="evenodd" d="M104.55932135 421.96871675s23.62103612 40.72533337 25.76832056 38.14389743c2.14773811-2.58143595 10.30769117-36.13919427 10.30769117-36.13919427l95.3438749 95.08046674-7.83103245 2.56643816H96.99959168l-8.76063012-72.26339075 16.32035979-27.3882173z"/>
        </g>
      </g>
      <g>
        <path fill="rgb(55,54,96)" fill-rule="evenodd" d="M198.96298873 303.05559607c-12.78004902-6.43798252-21.78649018 7.5185562-21.78649018 7.5185562-9.63188846.47732536-12.10638542 6.11749265-12.94152815 12.05223787-.83514272 5.93474523 10.56528327 35.73848568 10.56528327 35.73848568l1.48242383-13.63650345c-.87335187-.83281909-1.56793953-2.09932236-1.87133833-3.59630559-.59724532-2.95032527.55039362-5.67244357 2.56365163-6.07930661 2.01280314-.40731764 4.12931681 1.65472789 4.72656213 4.60550776.05003578.2477546.08324135.4932362.10916898.73644483.0482163-.03227628.09415825-.06273419.14237455-.09546507 1.93320075-1.30196172 1.5574775-13.54285675 1.5574775-13.54285675l39.07521824 1.0169303s-9.04101134-17.37191528-23.62280347-24.71772517"/>
        <g>
          <use fill="none" xlink:href="#path-51"/>
          <g mask="url(#mask-52)">
            <path fill="rgb(254,109,96)" fill-rule="evenodd" d="M243.37484177 447.51488655L91.76823512 296l-41.76850804 41.74232943L201.6067886 489.25767057 243.37484177 531l41.76805316-41.74232943 57.85728702-57.82228408-41.76850804-41.74278402-57.85683214 57.82228408z"/>
          </g>
        </g>
      </g>
      <g>
        <g>
          <use fill="none" xlink:href="#path-54"/>
          <g mask="url(#mask-55)">
            <path fill="rgb(230,62,54)" fill-rule="evenodd" d="M262.36128398 512.0250898s4.22483967-19.93992567 7.05822967-22.2997313c2.83339-2.35980562 20.530592-7.5899277 20.530592-7.5899277s-10.8495775 22.81115132-13.8012339 23.99037224c-2.9516564 1.1801301-13.78758777 5.89928677-13.78758777 5.89928677"/>
          </g>
        </g>
        <g>
          <use fill="none" xlink:href="#path-57"/>
          <g mask="url(#mask-58)">
            <path fill="rgb(230,62,54)" fill-rule="evenodd" d="M171.07572636 462.88258086s40.05728422-.02227518 41.71528816-.7191702c1.74852322-.73553563 12.22783591-12.58002332 13.27540329-8.73369017.65137493 2.39208191-2.19475145 6.52753785 1.42238088 6.00066158 3.61713233-.52733086 18.80799641-4.44367174 18.80799641-4.44367174s-12.96336194 25.71647165-18.12114155 27.61258979c-5.15777961 1.89566354-30.33260213 11.21487282-30.82340768 10.66663055-.49126043-.54824226-26.27651951-30.3833498-26.27651951-30.3833498"/>
          </g>
        </g>
      </g>
      <path fill="rgb(255,209,193)" fill-rule="evenodd" d="M128.20073288 470.47342493L98.54551272 453l-5.83144631 19.59387611s-8.23537302 27.27240406 3.9848141 36.84822555c12.45559991 9.76087904 122.86193248-29.53663771 122.86193248-29.53663771L221 464.92850177l-92.79926712 5.54492316z"/>
      <g>
        <use fill="none" xlink:href="#path-61"/>
        <g mask="url(#mask-62)">
          <path fill="rgb(255,178,160)" fill-rule="evenodd" d="M128.2006876 470.47319408l-38.20070424 2.86841382 9.41560596-27.43000093 28.78509828 24.5615871z"/>
        </g>
      </g>
      <g>
        <path fill="rgb(255,209,193)" fill-rule="evenodd" d="M213.70348098 466.25565706s11.02796653-15.56941718 12.08272856-12.96103958c1.05521648 2.6083776-1.5360171 3.56139521-1.13110845 6.57807989.67348442 5.01666666 25.85234928-8.06361304 26.67489098-6.33192131.82208726 1.73169172-2.99841444 22.03322529-7.11430404 24.2156808C233.70396867 483.33002906 211 482.17737458 211 482.17737458l2.70348098-15.92171753z"/>
        <path fill="rgb(255,209,193)" fill-rule="evenodd" d="M293 480.74893217s-18.7789451 5.74746406-20.58581019 7.79983944c-1.80686508 2.05237538-4.19405378 16.8286651-3.8068684 16.44384472.38718537-.38482039 12.43083184-5.6535173 15.52831484-8.21898653C287.23311925 494.20861225 293 480.74893217 293 480.74893217"/>
      </g>
    </g>
  </g>
</svg>
