<svg xmlns="http://www.w3.org/2000/svg" width="23.11" height="17.77" viewBox="0 0 23.11 17.77">
  <path fill="rgb(0,159,183)" fill-rule="evenodd" d="M5.77252567 0c-1.55093496 0-2.97063082.510581-3.9974072 1.43784306C.6137123 2.4864501 0 4.0228536 0 5.88134774c0 1.50032796.60852656 3.05917078 1.80882577 4.63372113.94619797 1.24124003 2.26178015 2.4966341 3.91044635 3.73148756 2.79351788 2.09186315 5.62832223 3.42614009 5.65664435 3.43943107l.17910745.08371596.17910746-.08371596c.02812266-.01329098 2.86312646-1.34756792 5.6564449-3.43943107 1.64886565-1.23485346 2.96444783-2.49024753 3.9106458-3.73148756 1.2002992-1.57455035 1.80882577-3.13339317 1.80882577-4.63372113 0-1.85832154-.61391176-3.39472503-1.77571682-4.44333207C20.30715574.51058101 18.88726043 0 17.33612601 0c-1.36743957 0-2.72570437.39872959-3.8242833 1.12265682-.8716031.57444678-1.53517829 1.31753374-1.95681879 2.18317395-.4216405-.8654676-1.08521568-1.60855456-1.95701824-2.18300134C8.49942675.3990748 7.1413614.0001726 5.77392183 0h-.00139615z"/>
</svg>
