<?xml version="1.0" encoding="UTF-8"?>
<svg width="86px" height="86px" viewBox="0 0 86 86" version="1.1" xmlns="http://www.w3.org/2000/svg" xmlns:xlink="http://www.w3.org/1999/xlink">
    <title>icon-user-happy-unhappy</title>
    <g id="Page-1" stroke="none" stroke-width="1" fill="none" fill-rule="evenodd">
        <g id="Group-2" transform="translate(18.439100, 21.231500)" fill="#FFFFFF">
            <path d="M43.3766,17.055 C39.9146,17.055 37.1106,13.237 37.1106,8.528 C37.1106,3.818 39.9146,3.67705866e-13 43.3766,3.67705866e-13 C46.8336,3.67705866e-13 49.6366,3.818 49.6366,8.528 C49.6366,13.237 46.8336,17.055 43.3766,17.055" id="Fill-10"></path>
            <path d="M42.5609,39.932 C42.7419,40.369 42.8929,40.818 43.0209,41.267 L42.8929,41.378 C42.4379,41.215 42.0419,41.022 41.6279,40.859 L41.0159,40.614 C40.8119,40.538 40.6259,40.445 40.4159,40.381 C39.6169,40.09 38.8479,39.81 38.0789,39.571 C36.5459,39.093 35.0539,38.72 33.5789,38.429 C30.6289,37.851 27.7559,37.583 24.8479,37.578 C21.9329,37.583 19.0539,37.851 16.1099,38.429 C14.6359,38.72 13.1439,39.093 11.6109,39.571 C10.8409,39.81 10.0719,40.09 9.2729,40.381 C9.0639,40.445 8.8769,40.538 8.6729,40.614 L8.0609,40.859 C7.6469,41.022 7.2509,41.215 6.7959,41.378 L6.6679,41.267 C6.7959,40.818 6.9479,40.369 7.1279,39.932 C7.3269,39.518 7.5189,39.076 7.7639,38.679 C8.2299,37.863 8.7839,37.088 9.4079,36.377 C10.6549,34.943 12.1589,33.724 13.8139,32.751 C17.1239,30.799 21.0059,29.843 24.8479,29.831 C28.6829,29.843 32.5649,30.799 35.8749,32.751 C37.5309,33.724 39.0349,34.943 40.2819,36.377 C40.9059,37.088 41.4589,37.863 41.9259,38.679 C42.1699,39.076 42.3629,39.518 42.5609,39.932" id="Fill-12"></path>
            <path d="M12.526,8.5277 C12.526,13.2367 9.722,17.0547 6.26,17.0547 C2.804,17.0547 -8.52651283e-14,13.2367 -8.52651283e-14,8.5277 C-8.52651283e-14,3.8187 2.804,0.0007 6.26,0.0007 C9.722,0.0007 12.526,3.8187 12.526,8.5277" id="Fill-14"></path>
        </g>
    </g>
</svg>