<?xml version="1.0" encoding="UTF-8"?>
<svg width="86px" height="86px" viewBox="0 0 86 86" version="1.1" xmlns="http://www.w3.org/2000/svg" xmlns:xlink="http://www.w3.org/1999/xlink">
    <title>icon-user-serious</title>
    <g id="Page-1" stroke="none" stroke-width="1" fill="none" fill-rule="evenodd">
        <g id="Group-4" transform="translate(17.807700, 23.808300)" fill="#F69B13">
            <path d="M6.266,17.049 C2.804,17.049 -8.52651283e-14,13.231 -8.52651283e-14,8.522 C-8.52651283e-14,3.818 2.804,0 6.266,0 C9.723,0 12.526,3.818 12.526,8.522 C12.526,13.231 9.723,17.049 6.266,17.049" id="Fill-26"></path>
            <path d="M40.0024,37.8049 C40.0024,38.9819 39.0524,39.9319 37.8744,39.9319 L11.6874,39.9319 C10.5154,39.9319 9.5594,38.9819 9.5594,37.8049 C9.5594,36.6279 10.5154,35.6779 11.6874,35.6779 L37.8744,35.6779 C39.0524,35.6779 40.0024,36.6279 40.0024,37.8049" id="Fill-28"></path>
            <path d="M49.6371,8.5217 C49.6371,13.2307 46.8331,17.0487 43.3711,17.0487 C39.9141,17.0487 37.1111,13.2307 37.1111,8.5217 C37.1111,3.8177 39.9141,0.0007 43.3711,0.0007 C46.8331,0.0007 49.6371,3.8177 49.6371,8.5217" id="Fill-30"></path>
        </g>
    </g>
</svg>