<?xml version="1.0" encoding="UTF-8"?>
<svg width="103px" height="101px" viewBox="0 0 103 101" version="1.1" xmlns="http://www.w3.org/2000/svg" xmlns:xlink="http://www.w3.org/1999/xlink">
    <title>app-icon</title>
    <g id="Page-1" stroke="none" stroke-width="1" fill="none" fill-rule="evenodd">
        <g id="1.-Login" transform="translate(-803.000000, -103.000000)" fill="#FFFFFF">
            <g id="app-icon" transform="translate(803.000000, 103.000000)">
                <path d="M31.6900077,38.0727176 C35.0257504,38.0727176 38.3120612,38.5853507 41.4582149,39.5959531 C42.1954722,39.8332666 42.6002705,40.6191245 42.3618524,41.3517139 C42.1225301,42.0840042 41.3274014,42.4844146 40.5934597,42.2485974 C37.727922,41.3274739 34.7315708,40.8606276 31.6900077,40.8606276 C15.7636222,40.8606276 2.80736491,53.7246357 2.80736491,69.5369573 C2.80736491,74.227565 3.97262932,78.8801666 6.1768659,82.9917054 C7.6354056,85.7104863 5.78352135,92.816724 4.45368519,97.0713093 C9.27780751,95.7937666 16.6413382,94.1397543 18.8781274,95.2446238 C22.879391,97.2137573 27.1899048,98.2126885 31.6900077,98.2126885 C38.9890359,98.2126885 45.9562078,95.5025862 51.3065981,90.5827451 C51.8771737,90.0596379 52.7630279,90.0928558 53.2914056,90.6581587 C53.8176735,91.2231623 53.7839152,92.1047835 53.2154495,92.6278907 C47.3430111,98.0268478 39.6988645,101 31.6900077,101 C26.7531567,101 22.0230754,99.9041084 17.6314814,97.7419519 C16.5003589,97.250686 10.664379,98.3362575 5.09593039,99.7919999 L4.40162739,99.9758083 C3.82480221,100.130443 3.253128,100.288549 2.69222497,100.448762 C2.19368711,100.590013 1.64632028,100.446069 1.28552838,100.068702 C0.924736475,99.691035 0.806582402,99.1454832 0.97748383,98.6540976 C2.94872782,92.9864047 4.54953467,85.8879477 3.69864449,84.3015683 C1.2791987,79.7881227 0,74.6824409 0,69.5369573 C0,52.1873349 14.2155627,38.0727176 31.6900077,38.0727176 Z M71.3099923,30.0699855 C88.7844373,30.0699855 103,44.184902 103,61.5342252 C103,66.6797087 101.720801,71.7856898 99.3013555,76.2991354 C98.4492597,77.8870111 100.050368,84.9854681 102.021311,90.6513655 C102.192212,91.1430503 102.074058,91.6886021 101.713567,92.0659694 C101.352775,92.4436361 100.810533,92.5878796 100.306569,92.4460302 C99.6334857,92.2538397 98.944906,92.0646729 98.2505343,91.8808908 L97.5545914,91.698991 C92.0935466,90.2895397 86.4755938,89.2587925 85.3652031,89.7416138 C80.975719,91.9016755 76.2456376,92.9972678 71.3099923,92.9972678 C53.8355474,92.9972678 39.6199846,78.883249 39.6199846,61.5342252 C39.6199846,44.184902 53.8355474,30.0699855 71.3099923,30.0699855 Z M71.3099923,32.8578955 C55.3836069,32.8578955 42.4273496,45.7219035 42.4273496,61.5342252 C42.4273496,77.3462476 55.3836069,90.2099564 71.3099923,90.2099564 C75.8091909,90.2099564 80.1194033,89.2110251 84.1218726,87.2418916 C86.3619774,86.1385185 93.720384,87.7907352 98.5463148,89.0688764 C97.2164787,84.8142911 95.3645944,77.7080534 96.8231341,74.9892726 C99.0273707,70.8777338 100.192635,66.2248329 100.192635,61.5342252 C100.192635,45.7219035 87.2360764,32.8578955 71.3099923,32.8578955 Z M52.745998,46.0216428 C59.5030848,51.9909902 63.3789604,60.5621076 63.3789604,69.5369274 C63.3789604,74.1245895 62.4066006,78.5476584 60.4893096,82.6822403 C60.2530015,83.1927785 59.7448184,83.4938345 59.2131251,83.4938345 C59.0169049,83.4938345 58.8176706,83.4525366 58.6268759,83.3654518 C57.9221712,83.0434476 57.6144281,82.2156933 57.9390504,81.5169202 C59.6854399,77.7498301 60.5715955,73.7193909 60.5715955,69.5369274 C60.5715955,61.3572426 57.038427,53.5453488 50.8793445,48.1044952 C50.3003292,47.5927599 50.2484861,46.7117373 50.7633003,46.1365587 C51.2790187,45.5607817 52.1669828,45.5111045 52.745998,46.0216428 Z M54.6676595,59.2239049 C54.9344104,59.946918 54.5609591,60.7471404 53.8321414,61.0128836 C51.7557041,61.7688154 49.5915555,62.3080827 47.399074,62.6160216 C47.3324617,62.6252987 47.2661507,62.6300869 47.200744,62.6300869 C46.5132199,62.6300869 45.9119001,62.1270301 45.812735,61.4312497 C45.7042262,60.6687341 46.2389337,59.9636766 47.0066337,59.8556436 C49.002895,59.5752366 50.9744404,59.083851 52.8661113,58.3949535 C53.5919149,58.1301081 54.3997029,58.501191 54.6676595,59.2239049 Z M19.5520578,48.3192146 C23.1759517,53.2626973 28.3888974,56.991482 34.2293859,58.8190654 C34.9690545,59.0503937 35.3801824,59.8332589 35.1471898,60.5673447 C34.9582036,61.1619751 34.4045071,61.5426344 33.8077085,61.5426344 C33.6684554,61.5426344 33.5261883,61.5216862 33.386031,61.4776949 C26.9755697,59.4726501 21.2562494,55.3820595 17.2824145,49.9597601 C16.8257731,49.3372985 16.9638204,48.4655529 17.5913632,48.0127719 C18.2180018,47.5599909 19.0963206,47.6964536 19.5520578,48.3192146 Z M72.9804257,35.4142377 C73.7442074,35.5495034 74.2523905,36.2737136 74.1152473,37.031441 C72.9415433,43.5663906 69.7628371,49.4704993 64.9251511,54.1054446 C64.6529748,54.3666989 64.3018281,54.4965779 63.9506814,54.4965779 C63.5835599,54.4965779 63.215534,54.35413 62.9403435,54.0704311 C62.4023205,53.5165001 62.4182954,52.6342804 62.9762117,52.099502 C67.3855892,47.8748428 70.2815696,42.4947391 71.3509846,36.5412525 C71.4893333,35.7832258 72.2232751,35.2804683 72.9804257,35.4142377 Z M42.9208839,0 C57.6702499,0 70.6834743,10.3636873 73.8642905,24.6422994 C74.0318764,25.3940415 73.5532318,26.1380029 72.7960812,26.3043917 C72.0398349,26.4710797 71.2899182,25.9955549 71.1223323,25.2444113 C68.2239405,12.2322693 56.3636226,2.78791 42.9208839,2.78791 C38.4207811,2.78791 34.1105687,3.78654199 30.1090037,5.75627402 C27.8688989,6.85874938 20.5086838,5.20593413 15.6845615,3.92898995 C17.0143976,8.18327597 18.8665833,15.2892144 17.4089478,18.0085938 C15.203807,22.1216289 14.0382412,26.7742305 14.0382412,31.4633419 C14.0382412,33.7000143 14.2989638,35.9292051 14.8134766,38.0892667 C14.9916119,38.8386148 14.5244211,39.5894592 13.7693804,39.7663221 C13.6605701,39.7914599 13.5520613,39.8040289 13.4456623,39.8040289 C12.8096799,39.8040289 12.2327746,39.3718968 12.0796566,38.7302825 C11.5166162,36.3604393 11.2308763,33.9154817 11.2308763,31.4633419 C11.2308763,26.3190555 12.510075,21.2130743 14.930425,16.698731 C15.7816166,15.1108552 14.1805083,8.01269753 12.2095658,2.34650089 C12.0386643,1.85451677 12.1568184,1.30956356 12.5173089,0.931896923 C12.8793064,0.554529543 13.4266733,0.408490462 13.9243069,0.5518362 C20.0951445,2.31358224 27.5726095,3.81946064 28.8656732,3.25685106 C33.2551573,1.09619089 37.9852386,0 42.9208839,0 Z" id="Combined-Shape"></path>
            </g>
        </g>
    </g>
</svg>