<?xml version="1.0" encoding="UTF-8"?>
<svg width="140px" height="140px" viewBox="0 0 140 140" version="1.1" xmlns="http://www.w3.org/2000/svg" xmlns:xlink="http://www.w3.org/1999/xlink">
    <title>icon-retro-blue</title>
    <g id="Page-1" stroke="none" stroke-width="1" fill="none" fill-rule="evenodd">
        <g id="2.-Admin-Dashboard" transform="translate(-390.000000, -363.000000)">
            <rect fill="#FFFFFF" x="0" y="0" width="1440" height="1024"></rect>
            <text id="Retros" font-family="Roboto-Light, Roboto" font-size="80" font-weight="300" letter-spacing="-0.492307754" fill="#00798B">
                <tspan x="348" y="571">Retros</tspan>
            </text>
            <path d="M441.690008,420.072718 C445.02575,420.072718 448.312061,420.585351 451.458215,421.595953 C452.195472,421.833267 452.60027,422.619124 452.361852,423.351714 C452.12253,424.084004 451.327401,424.484415 450.59346,424.248597 C447.727922,423.327474 444.731571,422.860628 441.690008,422.860628 C425.763622,422.860628 412.807365,435.724636 412.807365,451.536957 C412.807365,456.227565 413.972629,460.880167 416.176866,464.991705 C417.635406,467.710486 415.783521,474.816724 414.453685,479.071309 C419.277808,477.793767 426.641338,476.139754 428.878127,477.244624 C432.879391,479.213757 437.189905,480.212689 441.690008,480.212689 C448.989036,480.212689 455.956208,477.502586 461.306598,472.582745 C461.877174,472.059638 462.763028,472.092856 463.291406,472.658159 C463.817674,473.223162 463.783915,474.104784 463.215449,474.627891 C457.343011,480.026848 449.698865,483 441.690008,483 C436.753157,483 432.023075,481.904108 427.631481,479.741952 C426.500359,479.250686 420.664379,480.336258 415.09593,481.792 L414.401627,481.975808 C413.824802,482.130443 413.253128,482.288549 412.692225,482.448762 C412.193687,482.590013 411.64632,482.446069 411.285528,482.068702 C410.924736,481.691035 410.806582,481.145483 410.977484,480.654098 C412.948728,474.986405 414.549535,467.887948 413.698644,466.301568 C411.279199,461.788123 410,456.682441 410,451.536957 C410,434.187335 424.215563,420.072718 441.690008,420.072718 Z M481.309992,412.069985 C498.784437,412.069985 513,426.184902 513,443.534225 C513,448.679709 511.720801,453.78569 509.301356,458.299135 C508.44926,459.887011 510.050368,466.985468 512.021311,472.651365 C512.192212,473.14305 512.074058,473.688602 511.713567,474.065969 C511.352775,474.443636 510.810533,474.58788 510.306569,474.44603 C509.633486,474.25384 508.944906,474.064673 508.250534,473.880891 L507.554591,473.698991 C502.093547,472.28954 496.475594,471.258793 495.365203,471.741614 C490.975719,473.901675 486.245638,474.997268 481.309992,474.997268 C463.835547,474.997268 449.619985,460.883249 449.619985,443.534225 C449.619985,426.184902 463.835547,412.069985 481.309992,412.069985 Z M481.309992,414.857895 C465.383607,414.857895 452.42735,427.721904 452.42735,443.534225 C452.42735,459.346248 465.383607,472.209956 481.309992,472.209956 C485.809191,472.209956 490.119403,471.211025 494.121873,469.241892 C496.361977,468.138518 503.720384,469.790735 508.546315,471.068876 C507.216479,466.814291 505.364594,459.708053 506.823134,456.989273 C509.027371,452.877734 510.192635,448.224833 510.192635,443.534225 C510.192635,427.721904 497.236076,414.857895 481.309992,414.857895 Z M462.745998,428.021643 C469.503085,433.99099 473.37896,442.562108 473.37896,451.536927 C473.37896,456.12459 472.406601,460.547658 470.48931,464.68224 C470.253001,465.192779 469.744818,465.493834 469.213125,465.493834 C469.016905,465.493834 468.817671,465.452537 468.626876,465.365452 C467.922171,465.043448 467.614428,464.215693 467.93905,463.51692 C469.68544,459.74983 470.571595,455.719391 470.571595,451.536927 C470.571595,443.357243 467.038427,435.545349 460.879344,430.104495 C460.300329,429.59276 460.248486,428.711737 460.7633,428.136559 C461.279019,427.560782 462.166983,427.511104 462.745998,428.021643 Z M464.667659,441.223905 C464.93441,441.946918 464.560959,442.74714 463.832141,443.012884 C461.755704,443.768815 459.591556,444.308083 457.399074,444.616022 C457.332462,444.625299 457.266151,444.630087 457.200744,444.630087 C456.51322,444.630087 455.9119,444.12703 455.812735,443.43125 C455.704226,442.668734 456.238934,441.963677 457.006634,441.855644 C459.002895,441.575237 460.97444,441.083851 462.866111,440.394954 C463.591915,440.130108 464.399703,440.501191 464.667659,441.223905 Z M429.552058,430.319215 C433.175952,435.262697 438.388897,438.991482 444.229386,440.819065 C444.969054,441.050394 445.380182,441.833259 445.14719,442.567345 C444.958204,443.161975 444.404507,443.542634 443.807708,443.542634 C443.668455,443.542634 443.526188,443.521686 443.386031,443.477695 C436.97557,441.47265 431.256249,437.38206 427.282414,431.95976 C426.825773,431.337298 426.96382,430.465553 427.591363,430.012772 C428.218002,429.559991 429.096321,429.696454 429.552058,430.319215 Z M482.980426,417.414238 C483.744207,417.549503 484.25239,418.273714 484.115247,419.031441 C482.941543,425.566391 479.762837,431.470499 474.925151,436.105445 C474.652975,436.366699 474.301828,436.496578 473.950681,436.496578 C473.58356,436.496578 473.215534,436.35413 472.940344,436.070431 C472.402321,435.5165 472.418295,434.63428 472.976212,434.099502 C477.385589,429.874843 480.28157,424.494739 481.350985,418.541252 C481.489333,417.783226 482.223275,417.280468 482.980426,417.414238 Z M452.920884,382 C467.67025,382 480.683474,392.363687 483.86429,406.642299 C484.031876,407.394042 483.553232,408.138003 482.796081,408.304392 C482.039835,408.47108 481.289918,407.995555 481.122332,407.244411 C478.223941,394.232269 466.363623,384.78791 452.920884,384.78791 C448.420781,384.78791 444.110569,385.786542 440.109004,387.756274 C437.868899,388.858749 430.508684,387.205934 425.684561,385.92899 C427.014398,390.183276 428.866583,397.289214 427.408948,400.008594 C425.203807,404.121629 424.038241,408.774231 424.038241,413.463342 C424.038241,415.700014 424.298964,417.929205 424.813477,420.089267 C424.991612,420.838615 424.524421,421.589459 423.76938,421.766322 C423.66057,421.79146 423.552061,421.804029 423.445662,421.804029 C422.80968,421.804029 422.232775,421.371897 422.079657,420.730283 C421.516616,418.360439 421.230876,415.915482 421.230876,413.463342 C421.230876,408.319055 422.510075,403.213074 424.930425,398.698731 C425.781617,397.110855 424.180508,390.012698 422.209566,384.346501 C422.038664,383.854517 422.156818,383.309564 422.517309,382.931897 C422.879306,382.55453 423.426673,382.40849 423.924307,382.551836 C430.095145,384.313582 437.572609,385.819461 438.865673,385.256851 C443.255157,383.096191 447.985239,382 452.920884,382 Z" id="Combined-Shape" fill="#009FB7"></path>
        </g>
    </g>
</svg>