<?xml version="1.0" encoding="UTF-8"?>
<svg width="33px" height="32px" viewBox="0 0 33 32" version="1.1" xmlns="http://www.w3.org/2000/svg" xmlns:xlink="http://www.w3.org/1999/xlink">
    <title>icon-edit-retro</title>
    <g id="Page-1" stroke="none" stroke-width="1" fill="none" fill-rule="evenodd">
        <rect id="Rectangle" fill="#FFFFFF" x="1" y="0" width="32" height="32"></rect>
        <g id="Group-11" transform="translate(16.000000, 16.531494) rotate(45.000000) translate(-16.000000, -16.531494) translate(14.000000, 1.000000)" fill="#727270">
            <rect id="Rectangle" transform="translate(2.000000, 16.000000) scale(-1, 1) rotate(90.000000) translate(-2.000000, -16.000000) " x="-9" y="14" width="22" height="4"></rect>
            <polygon id="Rectangle" transform="translate(2.000000, 29.531494) scale(-1, 1) rotate(90.000000) translate(-2.000000, -29.531494) " points="0.468505859 27.5314941 3.53149414 29.5314941 0.468505859 31.5314941"></polygon>
            <path d="M2,0 L4,0 L4,0 L4,4 L2,4 C0.8954305,4 1.3527075e-16,3.1045695 0,2 C-1.3527075e-16,0.8954305 0.8954305,2.02906125e-16 2,0 Z" id="Rectangle" transform="translate(2.000000, 2.000000) scale(-1, 1) rotate(90.000000) translate(-2.000000, -2.000000) "></path>
        </g>
    </g>
</svg>