<?xml version="1.0" encoding="UTF-8"?>
<svg width="86px" height="86px" viewBox="0 0 86 86" version="1.1" xmlns="http://www.w3.org/2000/svg" xmlns:xlink="http://www.w3.org/1999/xlink">
    <title>icon-user-happy</title>
    <g id="Page-1" stroke="none" stroke-width="1" fill="none" fill-rule="evenodd">
        <g id="Group-5" transform="translate(17.176900, 23.231500)" fill="#FFFFFF">
            <path d="M6.266,17.055 C2.804,17.055 5.68434189e-14,13.237 5.68434189e-14,8.528 C5.68434189e-14,3.818 2.804,-8.52651283e-14 6.266,-8.52651283e-14 C9.722,-8.52651283e-14 12.532,3.818 12.532,8.528 C12.532,13.237 9.722,17.055 6.266,17.055" id="Fill-18"></path>
            <path d="M42.8929,32.0345 L43.0209,32.1455 C42.8929,32.5995 42.7419,33.0425 42.5609,33.4795 C42.3629,33.8935 42.1699,34.3365 41.9249,34.7325 C41.4589,35.5555 40.9059,36.3245 40.2819,37.0415 C39.0349,38.4695 37.5309,39.6935 35.8749,40.6605 C32.5589,42.6135 28.6829,43.5755 24.8419,43.5805 C21.0059,43.5755 17.1239,42.6135 13.8139,40.6605 C12.1589,39.6935 10.6549,38.4695 9.4079,37.0415 C8.7839,36.3245 8.2299,35.5495 7.7579,34.7325 C7.5189,34.3365 7.3269,33.8935 7.1279,33.4795 C6.9479,33.0425 6.7899,32.5995 6.6679,32.1455 L6.7959,32.0345 C7.2449,32.1975 7.6469,32.3895 8.0609,32.5535 L8.6729,32.7975 C8.8769,32.8735 9.0639,32.9675 9.2679,33.0315 C10.0719,33.3285 10.8409,33.6025 11.6109,33.8415 C13.1439,34.3255 14.6359,34.6925 16.1099,34.9835 C19.0599,35.5665 21.9329,35.8285 24.8419,35.8405 C27.7559,35.8285 30.6289,35.5665 33.5789,34.9835 C35.0529,34.6925 36.5449,34.3255 38.0789,33.8415 C38.8479,33.6025 39.6179,33.3285 40.4149,33.0315 C40.6249,32.9675 40.8119,32.8735 41.0159,32.7975 L41.6279,32.5535 C42.0369,32.3895 42.4379,32.1975 42.8929,32.0345" id="Fill-20"></path>
            <path d="M49.6361,8.5277 C49.6361,13.2367 46.8331,17.0547 43.3761,17.0547 C39.9141,17.0547 37.1111,13.2367 37.1111,8.5277 C37.1111,3.8187 39.9141,0.0007 43.3761,0.0007 C46.8331,0.0007 49.6361,3.8187 49.6361,8.5277" id="Fill-22"></path>
        </g>
    </g>
</svg>