<svg xmlns="http://www.w3.org/2000/svg" width="29" height="29" viewBox="0 0 29 29">
  <g>
    <ellipse cx="14" cy="14" fill="rgb(255,255,255)" rx="14" ry="14"/>
    <path fill="rgb(246,155,19)" fill-rule="evenodd" d="M0 14.5C0 22.49517822 6.50482178 29 14.50024414 29 22.49517822 29 29 22.49517822 29 14.5 29 6.5046997 22.49517822 0 14.50024414 0 6.50482178 0 0 6.5046997 0 14.5zm1.40338135 0c0-7.22137451 5.8751831-13.09674072 13.09680176-13.09674072 7.2211914 0 13.0963745 5.8753662 13.0963745 13.09674072 0 7.22137451-5.8751831 13.09655762-13.0963745 13.09655762-7.22161866 0-13.09680176-5.8751831-13.09680176-13.09655762z"/>
    <path fill="rgb(246,155,19)" fill-rule="evenodd" d="M0 14.5C0 22.49517822 6.50482178 29 14.50024414 29 22.49517822 29 29 22.49517822 29 14.5 29 6.5046997 22.49517822 0 14.50024414 0 6.50482178 0 0 6.5046997 0 14.5zm1.40338135 0c0-7.22137451 5.8751831-13.09674072 13.09680176-13.09674072 7.2211914 0 13.0963745 5.8753662 13.0963745 13.09674072 0 7.22137451-5.8751831 13.09655762-13.0963745 13.09655762-7.22161866 0-13.09680176-5.8751831-13.09680176-13.09655762z"/>
    <path fill="rgb(246,155,19)" fill-rule="evenodd" d="M10.5 14c-.27614344 0-.5-.33776122-.5-.75441439V8.7544144C10 8.33776122 10.22385656 8 10.5 8s.5.33776122.5.75441439v4.49117122C11 13.66223878 10.77614344 14 10.5 14"/>
    <path fill="rgb(246,155,19)" fill-rule="evenodd" d="M18.5 14c-.27614344 0-.5-.33776122-.5-.75441439V8.7544144C18 8.33776122 18.22385656 8 18.5 8s.5.33776122.5.75441439v4.49117122C19 13.66223878 18.77614344 14 18.5 14"/>
    <path fill="rgb(246,155,19)" fill-rule="evenodd" d="M14.50210697 21c-2.40530296 0-4.81075255-.87813822-7.2002186-2.63393384-.31292548-.22983213-.39606922-.69366349-.1856437-1.03568702.21086543-.34266463.63567569-.4333794.94816124-.20306646 4.33197951 3.18335122 8.54239613 3.18447313 12.87129624 0 .31248556-.23031295.7368559-.13927763.94772133.20258564.21086543.34186326.1277217.80601517-.18520378 1.03616784C19.3112465 20.12186178 16.90697 21 14.50210697 21"/>
  </g>
</svg>
